<mxfile host="Electron" agent="Mozilla/5.0 (X11; Linux x86_64) AppleWebKit/537.36 (KHTML, like Gecko) draw.io/24.7.8 Chrome/128.0.6613.36 Electron/32.0.1 Safari/537.36" version="24.7.8">
  <diagram name="Page-1" id="BodhiIdGOb4gnPhzjzql">
    <mxGraphModel dx="768" dy="708" grid="1" gridSize="10" guides="1" tooltips="1" connect="1" arrows="1" fold="1" page="1" pageScale="1" pageWidth="850" pageHeight="1100" math="1" shadow="0">
      <root>
        <mxCell id="0" />
        <mxCell id="1" parent="0" />
        <mxCell id="wMdjij9ZZsWg5IOOSUUW-1" value="" style="pointerEvents=1;verticalLabelPosition=bottom;shadow=0;dashed=0;align=center;html=1;verticalAlign=top;shape=mxgraph.electrical.capacitors.capacitor_1;direction=south;strokeWidth=3;" parent="1" vertex="1">
          <mxGeometry x="214" y="280" width="50" height="100" as="geometry" />
        </mxCell>
        <mxCell id="wMdjij9ZZsWg5IOOSUUW-2" value="" style="pointerEvents=1;verticalLabelPosition=bottom;shadow=0;dashed=0;align=center;html=1;verticalAlign=top;shape=mxgraph.electrical.capacitors.capacitor_1;direction=south;strokeWidth=3;" parent="1" vertex="1">
          <mxGeometry x="214" y="360" width="50" height="100" as="geometry" />
        </mxCell>
        <mxCell id="wMdjij9ZZsWg5IOOSUUW-3" value="" style="pointerEvents=1;verticalLabelPosition=bottom;shadow=0;dashed=0;align=center;html=1;verticalAlign=top;shape=mxgraph.electrical.capacitors.capacitor_1;direction=south;strokeWidth=3;" parent="1" vertex="1">
          <mxGeometry x="410" y="280" width="50" height="100" as="geometry" />
        </mxCell>
        <mxCell id="wMdjij9ZZsWg5IOOSUUW-4" value="" style="pointerEvents=1;verticalLabelPosition=bottom;shadow=0;dashed=0;align=center;html=1;verticalAlign=top;shape=mxgraph.electrical.capacitors.capacitor_1;direction=south;strokeWidth=3;" parent="1" vertex="1">
          <mxGeometry x="410" y="360" width="50" height="100" as="geometry" />
        </mxCell>
        <mxCell id="wMdjij9ZZsWg5IOOSUUW-5" value="" style="pointerEvents=1;verticalLabelPosition=bottom;shadow=0;dashed=0;align=center;html=1;verticalAlign=top;shape=mxgraph.electrical.capacitors.capacitor_1;direction=south;strokeWidth=3;" parent="1" vertex="1">
          <mxGeometry x="130" y="360" width="50" height="100" as="geometry" />
        </mxCell>
        <mxCell id="wMdjij9ZZsWg5IOOSUUW-6" value="" style="pointerEvents=1;verticalLabelPosition=bottom;shadow=0;dashed=0;align=center;html=1;verticalAlign=top;shape=mxgraph.electrical.capacitors.capacitor_1;direction=south;strokeWidth=3;" parent="1" vertex="1">
          <mxGeometry x="490" y="280" width="50" height="100" as="geometry" />
        </mxCell>
        <mxCell id="wMdjij9ZZsWg5IOOSUUW-7" value="" style="endArrow=none;html=1;rounded=0;entryX=1;entryY=0.5;entryDx=0;entryDy=0;entryPerimeter=0;exitX=1;exitY=0.5;exitDx=0;exitDy=0;exitPerimeter=0;strokeWidth=3;" parent="1" source="wMdjij9ZZsWg5IOOSUUW-5" target="wMdjij9ZZsWg5IOOSUUW-2" edge="1">
          <mxGeometry width="50" height="50" relative="1" as="geometry">
            <mxPoint x="160" y="460" as="sourcePoint" />
            <mxPoint x="210" y="410" as="targetPoint" />
          </mxGeometry>
        </mxCell>
        <mxCell id="wMdjij9ZZsWg5IOOSUUW-8" value="" style="endArrow=none;html=1;rounded=0;entryX=1;entryY=0.5;entryDx=0;entryDy=0;entryPerimeter=0;exitX=1;exitY=0.5;exitDx=0;exitDy=0;exitPerimeter=0;strokeWidth=3;" parent="1" edge="1">
          <mxGeometry width="50" height="50" relative="1" as="geometry">
            <mxPoint x="156" y="360" as="sourcePoint" />
            <mxPoint x="240" y="360" as="targetPoint" />
          </mxGeometry>
        </mxCell>
        <mxCell id="wMdjij9ZZsWg5IOOSUUW-9" value="" style="shape=waypoint;sketch=0;fillStyle=solid;size=6;pointerEvents=1;points=[];fillColor=none;resizable=0;rotatable=0;perimeter=centerPerimeter;snapToPoint=1;strokeWidth=3;" parent="1" vertex="1">
          <mxGeometry x="229" y="350" width="20" height="20" as="geometry" />
        </mxCell>
        <mxCell id="wMdjij9ZZsWg5IOOSUUW-10" value="" style="pointerEvents=1;verticalLabelPosition=bottom;shadow=0;dashed=0;align=center;html=1;verticalAlign=top;shape=mxgraph.electrical.signal_sources.signal_ground;strokeWidth=3;" parent="1" vertex="1">
          <mxGeometry x="188" y="460" width="26" height="30" as="geometry" />
        </mxCell>
        <mxCell id="wMdjij9ZZsWg5IOOSUUW-11" value="" style="pointerEvents=1;verticalLabelPosition=bottom;shadow=0;dashed=0;align=center;html=1;verticalAlign=top;shape=mxgraph.electrical.signal_sources.signal_ground;strokeWidth=3;" parent="1" vertex="1">
          <mxGeometry x="422" y="460" width="26" height="30" as="geometry" />
        </mxCell>
        <mxCell id="wMdjij9ZZsWg5IOOSUUW-12" value="" style="endArrow=none;html=1;rounded=0;entryX=1;entryY=0.5;entryDx=0;entryDy=0;entryPerimeter=0;exitX=1;exitY=0.5;exitDx=0;exitDy=0;exitPerimeter=0;strokeWidth=3;" parent="1" target="wMdjij9ZZsWg5IOOSUUW-6" edge="1">
          <mxGeometry width="50" height="50" relative="1" as="geometry">
            <mxPoint x="434" y="380" as="sourcePoint" />
            <mxPoint x="518" y="380" as="targetPoint" />
          </mxGeometry>
        </mxCell>
        <mxCell id="wMdjij9ZZsWg5IOOSUUW-13" value="" style="shape=waypoint;sketch=0;fillStyle=solid;size=6;pointerEvents=1;points=[];fillColor=none;resizable=0;rotatable=0;perimeter=centerPerimeter;snapToPoint=1;strokeWidth=3;" parent="1" vertex="1">
          <mxGeometry x="425" y="370" width="20" height="20" as="geometry" />
        </mxCell>
        <mxCell id="wMdjij9ZZsWg5IOOSUUW-14" value="" style="endArrow=none;html=1;rounded=0;entryX=1;entryY=0.5;entryDx=0;entryDy=0;entryPerimeter=0;exitX=1;exitY=0.5;exitDx=0;exitDy=0;exitPerimeter=0;strokeWidth=3;" parent="1" edge="1">
          <mxGeometry width="50" height="50" relative="1" as="geometry">
            <mxPoint x="434" y="280" as="sourcePoint" />
            <mxPoint x="515" y="280" as="targetPoint" />
          </mxGeometry>
        </mxCell>
        <mxCell id="wMdjij9ZZsWg5IOOSUUW-15" value="&lt;font style=&quot;font-size: 16px;&quot;&gt;$$V_{ref}$$&lt;/font&gt;" style="text;html=1;align=center;verticalAlign=middle;whiteSpace=wrap;rounded=0;" parent="1" vertex="1">
          <mxGeometry x="214" y="250" width="60" height="30" as="geometry" />
        </mxCell>
        <mxCell id="wMdjij9ZZsWg5IOOSUUW-16" value="&lt;font style=&quot;font-size: 16px;&quot;&gt;$$V_{ref}$$&lt;/font&gt;" style="text;html=1;align=center;verticalAlign=middle;whiteSpace=wrap;rounded=0;" parent="1" vertex="1">
          <mxGeometry x="448" y="250" width="60" height="30" as="geometry" />
        </mxCell>
        <mxCell id="wMdjij9ZZsWg5IOOSUUW-17" value="&lt;font style=&quot;font-size: 14px;&quot;&gt;$$2C$$&lt;/font&gt;" style="text;html=1;align=center;verticalAlign=middle;whiteSpace=wrap;rounded=0;" parent="1" vertex="1">
          <mxGeometry x="264" y="315" width="60" height="30" as="geometry" />
        </mxCell>
        <mxCell id="wMdjij9ZZsWg5IOOSUUW-18" value="&lt;font style=&quot;font-size: 14px;&quot;&gt;$$C$$&lt;/font&gt;" style="text;html=1;align=center;verticalAlign=middle;whiteSpace=wrap;rounded=0;" parent="1" vertex="1">
          <mxGeometry x="80" y="395" width="60" height="30" as="geometry" />
        </mxCell>
        <mxCell id="wMdjij9ZZsWg5IOOSUUW-19" value="&lt;font style=&quot;font-size: 14px;&quot;&gt;$$C$$&lt;/font&gt;" style="text;html=1;align=center;verticalAlign=middle;whiteSpace=wrap;rounded=0;" parent="1" vertex="1">
          <mxGeometry x="249" y="395" width="60" height="30" as="geometry" />
        </mxCell>
        <mxCell id="wMdjij9ZZsWg5IOOSUUW-20" value="&lt;font style=&quot;font-size: 14px;&quot;&gt;$$C$$&lt;/font&gt;" style="text;html=1;align=center;verticalAlign=middle;whiteSpace=wrap;rounded=0;" parent="1" vertex="1">
          <mxGeometry x="360" y="395" width="60" height="30" as="geometry" />
        </mxCell>
        <mxCell id="wMdjij9ZZsWg5IOOSUUW-21" value="&lt;font style=&quot;font-size: 14px;&quot;&gt;$$2C$$&lt;/font&gt;" style="text;html=1;align=center;verticalAlign=middle;whiteSpace=wrap;rounded=0;" parent="1" vertex="1">
          <mxGeometry x="362" y="315" width="60" height="30" as="geometry" />
        </mxCell>
        <mxCell id="wMdjij9ZZsWg5IOOSUUW-22" value="&lt;font style=&quot;font-size: 14px;&quot;&gt;$$C$$&lt;/font&gt;" style="text;html=1;align=center;verticalAlign=middle;whiteSpace=wrap;rounded=0;" parent="1" vertex="1">
          <mxGeometry x="530" y="315" width="60" height="30" as="geometry" />
        </mxCell>
        <mxCell id="ZLAdJmUx4lx9MMbFuYyC-1" value="&lt;font style=&quot;font-size: 11px;&quot;&gt;$$V_{c,0}=\frac{1}{2}V_{ref}-V_{in}$$&lt;/font&gt;" style="text;html=1;align=center;verticalAlign=middle;whiteSpace=wrap;rounded=0;" vertex="1" parent="1">
          <mxGeometry x="125" y="330" width="60" height="30" as="geometry" />
        </mxCell>
        <mxCell id="ZLAdJmUx4lx9MMbFuYyC-2" value="&lt;font style=&quot;font-size: 11px;&quot;&gt;$$V_{c,1}=\frac{3}{4}V_{ref}-V_{in}$$&lt;/font&gt;" style="text;html=1;align=center;verticalAlign=middle;whiteSpace=wrap;rounded=0;" vertex="1" parent="1">
          <mxGeometry x="508" y="380" width="60" height="30" as="geometry" />
        </mxCell>
      </root>
    </mxGraphModel>
  </diagram>
</mxfile>
